<?xml version="1.0" encoding="UTF-8" standalone="no"?>
<!-- Created with Inkscape (http://www.inkscape.org/) -->

<svg
   xmlns:dc="http://purl.org/dc/elements/1.1/"
   xmlns:cc="http://creativecommons.org/ns#"
   xmlns:rdf="http://www.w3.org/1999/02/22-rdf-syntax-ns#"
   xmlns:svg="http://www.w3.org/2000/svg"
   xmlns="http://www.w3.org/2000/svg"
   xmlns:xlink="http://www.w3.org/1999/xlink"
   xmlns:sodipodi="http://sodipodi.sourceforge.net/DTD/sodipodi-0.dtd"
   xmlns:inkscape="http://www.inkscape.org/namespaces/inkscape"
   width="475.11499"
   height="417.64246"
   id="svg4909"
   version="1.1"
   inkscape:version="0.48.4 r9939"
   sodipodi:docname="New document 3">
  <defs
     id="defs4911">
    <linearGradient
       inkscape:collect="always"
       xlink:href="#linearGradient5676-8-0-3-9-6-2"
       id="linearGradient47885-1"
       gradientUnits="userSpaceOnUse"
       x1="428.39084"
       y1="836.28674"
       x2="422.84625"
       y2="838.83398" />
    <linearGradient
       inkscape:collect="always"
       id="linearGradient5676-8-0-3-9-6-2">
      <stop
         style="stop-color:#a57e67;stop-opacity:1;"
         offset="0"
         id="stop5678-4-9-8-2-6-0" />
      <stop
         style="stop-color:#a57e67;stop-opacity:0;"
         offset="1"
         id="stop5680-4-8-2-79-6-0" />
    </linearGradient>
  </defs>
  <sodipodi:namedview
     id="base"
     pagecolor="#ffffff"
     bordercolor="#666666"
     borderopacity="1.0"
     inkscape:pageopacity="0.0"
     inkscape:pageshadow="2"
     inkscape:zoom="0.98994949"
     inkscape:cx="-197.83008"
     inkscape:cy="278.61532"
     inkscape:document-units="px"
     inkscape:current-layer="layer1"
     showgrid="false"
     fit-margin-top="0"
     fit-margin-left="0"
     fit-margin-right="0"
     fit-margin-bottom="0"
     inkscape:window-width="1920"
     inkscape:window-height="1018"
     inkscape:window-x="-8"
     inkscape:window-y="-8"
     inkscape:window-maximized="1" />
  <metadata
     id="metadata4914">
    <rdf:RDF>
      <cc:Work
         rdf:about="">
        <dc:format>image/svg+xml</dc:format>
        <dc:type
           rdf:resource="http://purl.org/dc/dcmitype/StillImage" />
        <dc:title></dc:title>
      </cc:Work>
    </rdf:RDF>
  </metadata>
  <g
     inkscape:label="Layer 1"
     inkscape:groupmode="layer"
     id="layer1"
     transform="translate(-369.16342,-502.45227)">
    <rect
       style="fill:#2d2d2d;fill-opacity:1;stroke:none"
       id="rect11238-1-0-4"
       width="475.11499"
       height="417.64246"
       x="369.16342"
       y="502.45227" />
    <g
       transform="matrix(6.4380884,0,0,6.4380884,1690.1515,7051.5971)"
       id="g47847">
      <path
         inkscape:export-ydpi="90"
         inkscape:export-xdpi="90"
         inkscape:export-filename="cegui_website.png"
         style="fill:#a0ec1e;fill-opacity:1;stroke:none"
         d="m -178.0802,-970.5686 c 0,0 3.17318,1.4535 7.3599,1.4535 5.63572,0 8.44123,-1.3721 8.44123,-1.3721 0.17408,-0.1432 0.32266,-0.2944 0.26458,-0.511 l -5.94586,-14.9038 0.61386,-3.2427 c -1.97803,-0.3457 -4.24493,-0.3278 -5.80768,0.1089 -0.0267,0.2179 0.92078,3.0854 0.92078,3.0854 l -6.28308,14.6701 c -0.0123,0.3126 0.11156,0.5603 0.43627,0.7117 z"
         id="path5719-5-2-1-0-3-4-7"
         inkscape:connector-curvature="0"
         sodipodi:nodetypes="csccccccccc" />
      <path
         inkscape:export-ydpi="90"
         inkscape:export-xdpi="90"
         inkscape:export-filename="cegui_website.png"
         sodipodi:nodetypes="cccccccc"
         inkscape:connector-curvature="0"
         id="path7189-7-5-7-3-1-0-1"
         d="m -167.65732,-981.5738 -1.45446,-3.761 0.25706,-2.3909 c -0.79048,-0.1735 -1.86024,-0.1645 -2.8653,0.012 l 0.55989,2.3733 -1.69135,4.005 c 2.81467,-1.0664 3.26258,0.3049 5.19416,-0.2386 z"
         style="fill:#ffffff;fill-opacity:1;stroke:none" />
      <g
         inkscape:export-ydpi="90"
         inkscape:export-xdpi="90"
         inkscape:export-filename="cegui_website.png"
         style="fill:#a0ec1e;fill-opacity:1"
         id="g13483-8-7-5"
         transform="matrix(0.68403711,0,0,0.68403711,582.62646,-1400.5109)">
        <path
           sodipodi:type="arc"
           style="fill:#a0ec1e;fill-opacity:1;stroke:none;stroke-width:0.5;marker:none;visibility:visible;display:inline;overflow:visible;enable-background:accumulate"
           id="path3698-3-2-5-9-6-4-8-6-5"
           sodipodi:cx="-24.263393"
           sodipodi:cy="74.683609"
           sodipodi:rx="0.9598214"
           sodipodi:ry="0.89285713"
           d="m -23.303572,74.683609 c 0,0.493111 -0.429727,0.892857 -0.959821,0.892857 -0.530095,0 -0.959822,-0.399746 -0.959822,-0.892857 0,-0.493111 0.429727,-0.892857 0.959822,-0.892857 0.530094,0 0.959821,0.399746 0.959821,0.892857 z"
           transform="matrix(-0.80092625,0.82070794,-0.82070794,-0.80092625,-1065.9175,669.36719)" />
        <path
           sodipodi:type="arc"
           style="fill:#a0ec1e;fill-opacity:1;stroke:none;stroke-width:0.5;marker:none;visibility:visible;display:inline;overflow:visible;enable-background:accumulate"
           id="path3704-5-5-0-2-5-3-2-3-4"
           sodipodi:cx="-24.263393"
           sodipodi:cy="74.683609"
           sodipodi:rx="0.9598214"
           sodipodi:ry="0.89285713"
           d="m -23.303572,74.683609 c 0,0.493111 -0.429727,0.892857 -0.959821,0.892857 -0.530095,0 -0.959822,-0.399746 -0.959822,-0.892857 0,-0.493111 0.429727,-0.892857 0.959822,-0.892857 0.530094,0 0.959821,0.399746 0.959821,0.892857 z"
           transform="matrix(2.4202862,0,0,2.5529651,-1041.8547,405.27886)" />
        <path
           sodipodi:type="arc"
           style="fill:#a0ec1e;fill-opacity:1;stroke:none;stroke-width:0.5;marker:none;visibility:visible;display:inline;overflow:visible;enable-background:accumulate"
           id="path3710-0-4-4-2-8-3-7-6-0"
           sodipodi:cx="-24.263393"
           sodipodi:cy="74.683609"
           sodipodi:rx="0.9598214"
           sodipodi:ry="0.89285713"
           d="m -23.303572,74.683609 c 0,0.493111 -0.429727,0.892857 -0.959821,0.892857 -0.530095,0 -0.959822,-0.399746 -0.959822,-0.892857 0,-0.493111 0.429727,-0.892857 0.959822,-0.892857 0.530094,0 0.959821,0.399746 0.959821,0.892857 z"
           transform="matrix(-1.2304643,1.2608549,-1.2608549,-1.2304643,-1038.7305,712.60153)" />
        <path
           sodipodi:type="arc"
           style="fill:#a0ec1e;fill-opacity:1;stroke:none;stroke-width:0.5;marker:none;visibility:visible;display:inline;overflow:visible;enable-background:accumulate"
           id="path3728-2-1-4-8-8-0-6-1-2"
           sodipodi:cx="-24.263393"
           sodipodi:cy="74.683609"
           sodipodi:rx="0.9598214"
           sodipodi:ry="0.89285713"
           d="m -23.303572,74.683609 c 0,0.493111 -0.429727,0.892857 -0.959821,0.892857 -0.530095,0 -0.959822,-0.399746 -0.959822,-0.892857 0,-0.493111 0.429727,-0.892857 0.959822,-0.892857 0.530094,0 0.959821,0.399746 0.959821,0.892857 z"
           transform="matrix(1.4225264,0,0,1.4225264,-1058.7648,486.09835)" />
        <path
           sodipodi:type="arc"
           style="fill:#a0ec1e;fill-opacity:1;stroke:none;stroke-width:0.5;marker:none;visibility:visible;display:inline;overflow:visible;enable-background:accumulate"
           id="path3738-4-3-7-4-1-1-4-5-6"
           sodipodi:cx="-24.263393"
           sodipodi:cy="74.683609"
           sodipodi:rx="0.9598214"
           sodipodi:ry="0.89285713"
           d="m -23.303572,74.683609 c 0,0.493111 -0.429727,0.892857 -0.959821,0.892857 -0.530095,0 -0.959822,-0.399746 -0.959822,-0.892857 0,-0.493111 0.429727,-0.892857 0.959822,-0.892857 0.530094,0 0.959821,0.399746 0.959821,0.892857 z"
           transform="matrix(1.1467539,0,0,1.1467539,-1079.0595,499.77395)" />
        <path
           sodipodi:type="arc"
           style="fill:#a0ec1e;fill-opacity:1;stroke:none;stroke-width:0.5;marker:none;visibility:visible;display:inline;overflow:visible;enable-background:accumulate"
           id="path3740-7-7-2-0-7-6-2-4-0"
           sodipodi:cx="-24.263393"
           sodipodi:cy="74.683609"
           sodipodi:rx="0.9598214"
           sodipodi:ry="0.89285713"
           d="m -23.303572,74.683609 c 0,0.493111 -0.429727,0.892857 -0.959821,0.892857 -0.530095,0 -0.959822,-0.399746 -0.959822,-0.892857 0,-0.493111 0.429727,-0.892857 0.959822,-0.892857 0.530094,0 0.959821,0.399746 0.959821,0.892857 z"
           transform="matrix(1.8885261,0,0,1.8885261,-1060.5355,437.61438)" />
        <path
           sodipodi:type="arc"
           style="fill:#a0ec1e;fill-opacity:1;stroke:none;stroke-width:0.5;marker:none;visibility:visible;display:inline;overflow:visible;enable-background:accumulate"
           id="path3744-5-6-6-4-8-5-6-2-6"
           sodipodi:cx="-24.263393"
           sodipodi:cy="74.683609"
           sodipodi:rx="0.9598214"
           sodipodi:ry="0.89285713"
           d="m -23.303572,74.683609 c 0,0.493111 -0.429727,0.892857 -0.959821,0.892857 -0.530095,0 -0.959822,-0.399746 -0.959822,-0.892857 0,-0.493111 0.429727,-0.892857 0.959822,-0.892857 0.530094,0 0.959821,0.399746 0.959821,0.892857 z"
           transform="matrix(0.95768874,-0.30715067,0.30715067,0.95768874,-1096.6283,505.12525)" />
        <path
           sodipodi:type="arc"
           style="fill:#a0ec1e;fill-opacity:1;stroke:none;stroke-width:0.5;marker:none;visibility:visible;display:inline;overflow:visible;enable-background:accumulate"
           id="path3748-4-8-2-3-9-1-9-0-1"
           sodipodi:cx="-24.263393"
           sodipodi:cy="74.683609"
           sodipodi:rx="0.9598214"
           sodipodi:ry="0.89285713"
           d="m -23.303572,74.683609 c 0,0.493111 -0.429727,0.892857 -0.959821,0.892857 -0.530095,0 -0.959822,-0.399746 -0.959822,-0.892857 0,-0.493111 0.429727,-0.892857 0.959822,-0.892857 0.530094,0 0.959821,0.399746 0.959821,0.892857 z"
           transform="matrix(0.65052039,-0.20863547,0.20863547,0.65052039,-1096.1927,541.51784)" />
        <path
           sodipodi:type="arc"
           style="fill:#a0ec1e;fill-opacity:1;stroke:none;stroke-width:0.5;marker:none;visibility:visible;display:inline;overflow:visible;enable-background:accumulate"
           id="path3704-5-5-0-2-5-3-2-1-9-1"
           sodipodi:cx="-24.263393"
           sodipodi:cy="74.683609"
           sodipodi:rx="0.9598214"
           sodipodi:ry="0.89285713"
           d="m -23.303572,74.683609 c 0,0.493111 -0.429727,0.892857 -0.959821,0.892857 -0.530095,0 -0.959822,-0.399746 -0.959822,-0.892857 0,-0.493111 0.429727,-0.892857 0.959822,-0.892857 0.530094,0 0.959821,0.399746 0.959821,0.892857 z"
           transform="matrix(2.4202862,0,0,2.5529651,-1057.0196,390.11254)" />
      </g>
    </g>
  </g>
</svg>
