<?xml version="1.0" encoding="UTF-8" standalone="no"?>
<svg
   xmlns:dc="http://purl.org/dc/elements/1.1/"
   xmlns:cc="http://creativecommons.org/ns#"
   xmlns:rdf="http://www.w3.org/1999/02/22-rdf-syntax-ns#"
   xmlns:svg="http://www.w3.org/2000/svg"
   xmlns="http://www.w3.org/2000/svg"
   xmlns:xlink="http://www.w3.org/1999/xlink"
   xmlns:sodipodi="http://sodipodi.sourceforge.net/DTD/sodipodi-0.dtd"
   xmlns:inkscape="http://www.inkscape.org/namespaces/inkscape"
   id="svg2"
   viewBox="0 0 2523.8502 2279.1132"
   version="1.1"
   inkscape:version="0.48.4 r9939"
   width="100%"
   height="100%"
   sodipodi:docname="chromed.svg">
  <sodipodi:namedview
     pagecolor="#ffffff"
     bordercolor="#666666"
     borderopacity="1"
     objecttolerance="10"
     gridtolerance="10"
     guidetolerance="10"
     inkscape:pageopacity="0"
     inkscape:pageshadow="2"
     inkscape:window-width="1920"
     inkscape:window-height="1018"
     id="namedview38"
     showgrid="false"
     fit-margin-top="0"
     fit-margin-left="0"
     fit-margin-right="0"
     fit-margin-bottom="0"
     inkscape:zoom="0.23050811"
     inkscape:cx="473.95595"
     inkscape:cy="1298.6698"
     inkscape:window-x="-8"
     inkscape:window-y="-8"
     inkscape:window-maximized="1"
     inkscape:current-layer="layer1" />
  <defs
     id="defs4">
    <linearGradient
       id="linearGradient4045">
      <stop
         id="stop4047"
         stop-color="#0f2543"
         offset="0"
         style="stop-color:#2861b0;stop-opacity:1;" />
      <stop
         id="stop4049"
         stop-color="#3465a4"
         offset="0.52692002"
         style="stop-color:#7aa2d5;stop-opacity:1;" />
      <stop
         id="stop4051"
         stop-color="#729fcf"
         offset="1"
         style="stop-color:#b3ceea;stop-opacity:1;" />
    </linearGradient>
    <filter
       id="filter4146"
       color-interpolation-filters="sRGB">
      <feGaussianBlur
         id="feGaussianBlur4148"
         stdDeviation="4.2422908" />
    </filter>
    <linearGradient
       id="linearGradient4179"
       y2="59.570999"
       xlink:href="#linearGradient4045"
       gradientUnits="userSpaceOnUse"
       x2="352.32999"
       gradientTransform="translate(-101,764.01)"
       y1="71.25"
       x1="340.45001" />
    <linearGradient
       id="linearGradient4182"
       y2="59.570999"
       xlink:href="#linearGradient4045"
       gradientUnits="userSpaceOnUse"
       x2="352.32999"
       gradientTransform="translate(-87,764.01)"
       y1="71.25"
       x1="340.45001" />
    <linearGradient
       id="linearGradient4185"
       y2="59.570999"
       gradientUnits="userSpaceOnUse"
       x2="352.32999"
       gradientTransform="translate(-73,764.01)"
       y1="71.25"
       x1="340.45001">
      <stop
         id="stop4039"
         stop-color="#a40000"
         offset="0" />
      <stop
         id="stop4041"
         stop-color="#c00"
         offset=".52692" />
      <stop
         id="stop4043"
         stop-color="#f57a7a"
         offset="1" />
    </linearGradient>
    <linearGradient
       id="linearGradient4188"
       y2="55.859001"
       gradientUnits="userSpaceOnUse"
       x2="152.56"
       gradientTransform="translate(-73,764)"
       y1="75.317001"
       x1="152.56"
       xlink:href="#linearGradient4194"
       spreadMethod="pad">
      <stop
         id="stop3181"
         stop-color="#204a87"
         offset="0"
         style="stop-color:#7b99f0;stop-opacity:1;" />
      <stop
         id="stop3187"
         stop-color="#3465a4"
         offset="0.52692002"
         style="stop-color:#3c82dc;stop-opacity:1;" />
      <stop
         id="stop3183"
         stop-color="#729fcf"
         offset="1"
         style="stop-color:#98badc;stop-opacity:1;" />
    </linearGradient>
    <linearGradient
       id="linearGradient4191"
       y2="159.94"
       xlink:href="#linearGradient4045"
       spreadMethod="reflect"
       gradientUnits="userSpaceOnUse"
       x2="208.25"
       gradientTransform="translate(-73,764)"
       y1="342.44"
       x1="436" />
    <linearGradient
       id="linearGradient4194"
       y2="159.94"
       spreadMethod="reflect"
       gradientUnits="userSpaceOnUse"
       x2="208.25"
       gradientTransform="translate(-71.828,766.59)"
       y1="342.44"
       x1="436">
      <stop
         id="stop4140"
         stop-color="#2e3436"
         offset="0" />
      <stop
         id="stop4142"
         stop-color="#888a85"
         offset=".52692" />
      <stop
         id="stop4144"
         stop-color="#d3d7cf"
         offset="1" />
    </linearGradient>
    <linearGradient
       inkscape:collect="always"
       xlink:href="#linearGradient4317-5-8-6-40-4"
       id="linearGradient3445"
       gradientUnits="userSpaceOnUse"
       x1="551.95752"
       y1="692.59723"
       x2="553.92218"
       y2="694.21295" />
    <linearGradient
       id="linearGradient4317-5-8-6-40-4">
      <stop
         id="stop4319-7-2-1-9-78"
         offset="0"
         style="stop-color:#000000;stop-opacity:1;" />
      <stop
         style="stop-color:#22313f;stop-opacity:1;"
         offset="0.5"
         id="stop4321-0-7-5-4-3" />
      <stop
         id="stop4323-8-2-1-8-5"
         offset="1"
         style="stop-color:#5f3211;stop-opacity:0.902439;" />
    </linearGradient>
    <linearGradient
       inkscape:collect="always"
       xlink:href="#linearGradient4300-5-6-6-2-0"
       id="linearGradient3447"
       gradientUnits="userSpaceOnUse"
       x1="541.73846"
       y1="689.78497"
       x2="546.22296"
       y2="692.79352" />
    <linearGradient
       id="linearGradient4300-5-6-6-2-0">
      <stop
         style="stop-color:#000000;stop-opacity:1;"
         offset="0"
         id="stop4302-2-8-7-4-1" />
      <stop
         id="stop4310-2-6-3-5-6"
         offset="0.5"
         style="stop-color:#22313f;stop-opacity:1;" />
      <stop
         style="stop-color:#103d27;stop-opacity:0.82926828;"
         offset="1"
         id="stop4304-5-7-0-5-4" />
    </linearGradient>
    <linearGradient
       inkscape:collect="always"
       xlink:href="#linearGradient5245-5-7-3-71-6"
       id="linearGradient3449"
       gradientUnits="userSpaceOnUse"
       x1="464.76596"
       y1="684.14856"
       x2="469.29657"
       y2="686.2168" />
    <linearGradient
       inkscape:collect="always"
       id="linearGradient5245-5-7-3-71-6">
      <stop
         style="stop-color:#fbbf8f;stop-opacity:1;"
         offset="0"
         id="stop5247-6-2-7-1-1" />
      <stop
         style="stop-color:#fbbf8f;stop-opacity:0;"
         offset="1"
         id="stop5249-0-9-8-5-8" />
    </linearGradient>
    <linearGradient
       inkscape:collect="always"
       xlink:href="#linearGradient5253-3-4-0-7-8"
       id="linearGradient3451"
       gradientUnits="userSpaceOnUse"
       x1="463.76114"
       y1="683.11865"
       x2="469.29657"
       y2="686.2168" />
    <linearGradient
       inkscape:collect="always"
       id="linearGradient5253-3-4-0-7-8">
      <stop
         style="stop-color:#fbbf8f;stop-opacity:1;"
         offset="0"
         id="stop5255-6-52-5-61-4" />
      <stop
         style="stop-color:#fbbf8f;stop-opacity:0;"
         offset="1"
         id="stop5257-8-1-1-4-1" />
    </linearGradient>
    <linearGradient
       inkscape:collect="always"
       xlink:href="#linearGradient5287-3-0-8-32-39"
       id="linearGradient3453"
       gradientUnits="userSpaceOnUse"
       x1="465.84088"
       y1="684.06317"
       x2="466.40771"
       y2="685.39508" />
    <linearGradient
       inkscape:collect="always"
       id="linearGradient5287-3-0-8-32-39">
      <stop
         style="stop-color:#b1e0f8;stop-opacity:1;"
         offset="0"
         id="stop5289-4-9-0-21-8" />
      <stop
         style="stop-color:#b1e0f8;stop-opacity:0;"
         offset="1"
         id="stop5291-6-6-8-6-8" />
    </linearGradient>
    <linearGradient
       inkscape:collect="always"
       xlink:href="#linearGradient5287-0-5-7-8-5-8"
       id="linearGradient3455"
       gradientUnits="userSpaceOnUse"
       gradientTransform="matrix(0.65965816,0,0,0.65965816,167.65676,235.87426)"
       x1="465.84088"
       y1="684.06317"
       x2="466.40771"
       y2="685.39508" />
    <linearGradient
       inkscape:collect="always"
       id="linearGradient5287-0-5-7-8-5-8">
      <stop
         style="stop-color:#b1e0f8;stop-opacity:1;"
         offset="0"
         id="stop5289-3-7-2-5-7-77" />
      <stop
         style="stop-color:#b1e0f8;stop-opacity:0;"
         offset="1"
         id="stop5291-9-8-1-6-61-8" />
    </linearGradient>
  </defs>
  <g
     id="layer1"
     transform="matrix(5.7556456,0,0,5.7556456,450.3336,-4284.3102)">
    <rect
       style="fill:#2d2d2d;fill-opacity:1;stroke:none"
       id="rect3958"
       width="438.49994"
       height="395.97873"
       x="-78.242065"
       y="744.36658" />
    <path
       id="path4129"
       d="m 19.172,823.21 c -1.108,0 -2,0.892 -2,2 v 209.76 c 0,1.108 0.892,2 2,2 h 263.75 c 1.108,0 2,-0.892 2,-2 V 825.21 c 0,-1.108 -0.892,-2 -2,-2 H 19.172 z"
       style="fill:url(#linearGradient4194);fill-rule:evenodd;filter:url(#filter4146)"
       inkscape:connector-curvature="0" />
    <path
       id="rect3175"
       d="m 16,838.5 v 193.88 c 0,1.108 0.892,2 2,2 h 263.75 c 1.108,0 2,-0.892 2,-2 V 838.5 z"
       style="fill:url(#linearGradient4191);fill-rule:evenodd"
       inkscape:connector-curvature="0" />
    <path
       id="rect3177"
       d="m 18,820.62 c -1.108,0 -2,0.892 -2,2 v 15.875 H 283.75 V 822.62 c 0,-1.108 -0.892,-2 -2,-2 z"
       style="fill:url(#linearGradient4188);fill-rule:evenodd;fill-opacity:1.0"
       inkscape:connector-curvature="0" />
    <path
       id="rect3197"
       d="m 268.71,823.74 h 9.0504 c 0.94551,0 1.7067,0.76119 1.7067,1.7067 v 8.2242 c 0,0.94551 -0.76119,1.7067 -1.7067,1.7067 H 268.71 c -0.94551,0 -1.7067,-0.76119 -1.7067,-1.7067 v -8.2242 c 0,-0.9455 0.76119,-1.7067 1.7067,-1.7067 z"
       style="fill:url(#linearGradient4185);fill-rule:evenodd"
       inkscape:connector-curvature="0" />
    <path
       id="path4029"
       d="m 254.71,823.74 h 9.0504 c 0.94551,0 1.7067,0.76119 1.7067,1.7067 v 8.2242 c 0,0.94551 -0.76119,1.7067 -1.7067,1.7067 H 254.71 c -0.94551,0 -1.7067,-0.76119 -1.7067,-1.7067 v -8.2242 c 0,-0.9455 0.76119,-1.7067 1.7067,-1.7067 z"
       style="fill:url(#linearGradient4182);fill-rule:evenodd"
       inkscape:connector-curvature="0" />
    <path
       id="path4033"
       d="m 240.71,823.74 h 9.0504 c 0.94551,0 1.7067,0.76119 1.7067,1.7067 v 8.2242 c 0,0.94551 -0.76119,1.7067 -1.7067,1.7067 H 240.71 c -0.94551,0 -1.7067,-0.76119 -1.7067,-1.7067 v -8.2242 c 0,-0.9455 0.76119,-1.7067 1.7067,-1.7067 z"
       style="fill:url(#linearGradient4179);fill-rule:evenodd"
       inkscape:connector-curvature="0" />
    <rect
       id="rect4064"
       height="1.5"
       width="7.6875"
       y="831.91998"
       x="241.5"
       style="fill:#eeeeec;fill-rule:evenodd" />
    <path
       id="rect4070"
       d="m 256.28,828.36 h 6.1215 v 4.375 H 256.28 z m -0.78299,-1.6875 h 7.6875 v 6.75 h -7.6875 z"
       inkscape:connector-curvature="0"
       style="fill:#eeeeec;fill-rule:evenodd" />
    <path
       id="path4085"
       d="m 270.34,826.11 -0.6875,0.71875 2.9375,2.9375 -2.9375,2.9375 0.6875,0.71875 2.9375,-2.9688 2.9688,2.9688 0.6875,-0.71875 -2.9375,-2.9375 2.9375,-2.9375 -0.6875,-0.71875 -2.9688,2.9688 -2.9375,-2.9688 z"
       style="text-indent:0;text-transform:none;block-progression:tb;color:#000000;fill:#eeeeec"
       inkscape:connector-curvature="0" />
    <path
       id="path4113"
       d="m 20,1030.3 c 86.583,0.047 173.17,0.047 259.75,0 V 842.46 H 20 v 187.84 z"
       inkscape:connector-curvature="0"
       style="fill:#a0ec1e;fill-rule:evenodd;fill-opacity:1" />
  </g>
  <metadata
     id="metadata36">
    <rdf:RDF>
      <cc:Work>
        <dc:format>image/svg+xml</dc:format>
        <dc:type
           rdf:resource="http://purl.org/dc/dcmitype/StillImage" />
        <cc:license
           rdf:resource="http://creativecommons.org/licenses/publicdomain/" />
        <dc:publisher>
          <cc:Agent
             rdf:about="http://openclipart.org/">
            <dc:title>Openclipart</dc:title>
          </cc:Agent>
        </dc:publisher>
        <dc:title />
        <dc:date>2010-09-26T19:13:50</dc:date>
        <dc:description>Windows Window Frame Template</dc:description>
        <dc:source>http://openclipart.org/detail/87103/window-frame-template-by-jhnri4</dc:source>
        <dc:creator>
          <cc:Agent>
            <dc:title>jhnri4</dc:title>
          </cc:Agent>
        </dc:creator>
        <dc:subject>
          <rdf:Bag>
            <rdf:li>clip art</rdf:li>
            <rdf:li>clipart</rdf:li>
            <rdf:li>close</rdf:li>
            <rdf:li>dialog box</rdf:li>
            <rdf:li>frame</rdf:li>
            <rdf:li>mac</rdf:li>
            <rdf:li>maximize</rdf:li>
            <rdf:li>minimize</rdf:li>
            <rdf:li>placeholder</rdf:li>
            <rdf:li>template</rdf:li>
            <rdf:li>window</rdf:li>
            <rdf:li>windows</rdf:li>
          </rdf:Bag>
        </dc:subject>
      </cc:Work>
      <cc:License
         rdf:about="http://creativecommons.org/licenses/publicdomain/">
        <cc:permits
           rdf:resource="http://creativecommons.org/ns#Reproduction" />
        <cc:permits
           rdf:resource="http://creativecommons.org/ns#Distribution" />
        <cc:permits
           rdf:resource="http://creativecommons.org/ns#DerivativeWorks" />
      </cc:License>
    </rdf:RDF>
  </metadata>
  <g
     style="display:inline"
     transform="matrix(32.464725,0,0,29.334189,-13969.528,-19132.943)"
     id="g5333-8-1-1">
    <path
       sodipodi:nodetypes="cccccccccccccccccccccccccc"
       inkscape:connector-curvature="0"
       id="path3432-2-7-2"
       d="m 464.14788,695.22337 -1.12635,-1.25712 c -0.45295,-1.01248 -1.21974,-0.59579 -1.17826,-1.7566 -0.86566,-0.89148 -1.80042,-0.7811 -2.77736,-0.0591 0.33212,-0.11071 0.39141,2.84386 0.17728,2.65917 0.15959,-0.22179 -2.98765,-3.2502 -3.44294,-3.66497 1.31826,-1.33959 0.75789,-1.42341 2.01212,-2.45793 -2.40225,-0.28949 -1.70267,-0.005 -4.79593,-0.61714 3.83745,-2.66764 0.0188,-2.96945 0.14021,-3.89664 -0.16149,-0.46258 0.18407,-0.83127 -1.38064,-1.55372 0.48735,-0.33886 1.09995,-0.59868 1.6761,-0.75089 -0.50709,-0.41065 -1.03699,-0.92391 -1.65459,-1.83187 2.19931,-0.42183 4.16877,-1.11948 6.61837,-1.24095 -0.60301,-0.44002 -0.77742,-0.92289 -0.82729,-1.41822 0.70775,-0.12797 1.45118,-0.20599 1.89096,-0.70911 l 0.11819,-1.00458 c 0.44381,0.45579 0.98256,0.57931 1.5364,0.65002 0.38457,-0.33486 0.0136,-0.66971 0,-1.00457 1.08525,0.32579 1.90534,1.00511 2.65917,1.77278 0.64922,-0.51214 0.77262,-1.02427 1.06367,-1.53641 l 0.76821,2.60007 -1.47732,2.4228 -0.41365,8.74571 1.53641,2.77736 -0.95194,2.92706 z"
       style="fill:#e7f7da;fill-opacity:1;stroke:none" />
    <path
       sodipodi:nodetypes="ccccccccccccccccccccccc"
       inkscape:connector-curvature="0"
       id="path3434-8-4-3"
       d="m 478.39423,688.37474 1.04462,-6.72736 c 1.2939,-1.07675 2.70352,-1.80637 4.22027,-2.21459 -0.21979,0.62677 -0.54042,1.25355 -0.50142,1.88032 0.84962,0.51812 1.69925,0.58217 2.54887,0.79391 l -0.66855,0.29249 c 0.68683,0.65958 1.07918,1.14047 1.42068,1.88032 -0.37946,-0.0869 -0.62977,0.0291 -0.91926,0.0836 1.18417,1.41841 1.89544,2.75799 2.84136,4.13669 l 0.5432,1.58782 c -0.82583,-0.10132 -1.35847,0.21622 -1.79674,0.66856 l -0.16714,0.8357 c -1.03901,-0.25082 -2.12449,-0.38546 -3.38457,-0.0836 -0.23744,1.18092 -1.01514,2.19976 -1.79675,3.21743 -0.95404,-0.31529 -1.50297,-1.08972 -3.21743,-0.5432 l -0.45963,0.45963 0.0836,1.04462 c -0.79646,0.27221 -1.43563,0.93762 -2.13103,1.46247 0,0 -0.5432,-2.33995 -0.37606,-2.42352 0.16714,-0.0836 1.9221,-3.17565 1.9221,-3.17565 l 1.6908,-0.4677 0.81629,-2.12299 z"
       style="fill:#e7f7da;fill-opacity:1;stroke:none" />
    <path
       style="fill:#a3b891;fill-opacity:1;stroke:none"
       d="m 460.68792,686.97496 c -1.36363,-0.6327 -2.62801,-1.58107 -5.23355,-1.56693 0.94883,0.51964 1.66401,1.0118 1.6714,1.42068 -0.0825,0.86301 -1.47098,1.13829 -2.61155,1.52514 0,0 0.58498,0.17759 3.29055,0.37607 l 3.13386,-0.34473 z"
       id="path5267-2-3-3"
       inkscape:connector-curvature="0"
       sodipodi:nodetypes="ccccccc" />
    <path
       style="fill:#a3b891;fill-opacity:1;stroke:none"
       d="m 459.26724,694.91407 c -0.40726,-1.19086 -0.33127,-2.35329 -1.22221,-3.5726 1.47034,-1.37816 3.32868,-1.6835 4.77391,-2.30861 l 0.24027,2.14147 0.5432,2.44441 c 0,0 -1.94299,-1.77585 -2.65333,-1.85942 -0.99239,0.0104 -1.79675,0.4074 -1.79675,0.4074 0.57154,1.47504 0.31859,2.24725 0.11491,2.74735 z"
       id="path5269-4-0-4"
       inkscape:connector-curvature="0"
       sodipodi:nodetypes="cccccccc" />
    <path
       sodipodi:nodetypes="sccsssccsssscssccsss"
       inkscape:connector-curvature="0"
       id="path3436-4-7-1"
       d="m 465.48272,698.57024 c -0.90888,-1.20315 -1.9221,-4.09491 -1.9221,-4.09491 l -0.8357,-5.2231 c 0,0 -0.49678,0.59981 -0.79391,0.50141 -1.36033,-0.45051 -1.6761,-2.95602 -1.42069,-4.26205 0.077,-0.39357 0.60651,-0.22832 1.00284,-0.16713 0.47084,0.0727 1.12819,0.87748 1.12819,0.87748 l 0.62678,-5.72452 c 0,0 2.35796,-4.12318 4.30383,-5.30667 1.531,-0.93117 3.4976,-1.38262 5.26489,-1.08641 1.96477,0.32931 3.81025,1.56645 5.13953,3.05029 0.98989,1.10499 1.86838,2.56989 1.83853,4.05313 -0.0354,1.75684 -1.21176,6.97806 -1.21176,6.97806 0,0 1.45718,-0.32935 1.79675,0.16714 0.57244,0.83696 -0.13993,2.18732 -0.8357,2.92494 -0.40502,0.42938 -1.67139,0.58498 -1.67139,0.58498 l -1.96389,4.47098 c 0,0 -1.53249,2.38626 -2.59066,3.301 -1.1658,1.00778 0.20558,2.71474 -4.01134,2.29816 -4.43987,-0.43861 -2.82065,-1.98782 -3.8442,-3.34278 z"
       style="fill:#fcd4bd;fill-opacity:1;stroke:none" />
    <path
       d="m 467.83642,686.07648 c 0,0.34267 -0.2778,0.62047 -0.62048,0.62047 -0.34268,0 -0.62047,-0.2778 -0.62047,-0.62047 0,-0.34268 0.27779,-0.62048 0.62047,-0.62048 0.34268,0 0.62048,0.2778 0.62048,0.62048 z"
       sodipodi:ry="0.62047267"
       sodipodi:rx="0.62047267"
       sodipodi:cy="686.07648"
       sodipodi:cx="467.21594"
       id="path3467-1-6-0-1"
       style="color:#000000;fill:#87ae85;fill-opacity:1;fill-rule:nonzero;stroke:none;stroke-width:1;marker:none;visibility:visible;display:inline;overflow:visible;enable-background:accumulate"
       sodipodi:type="arc"
       transform="translate(7.947958,1.6250378)" />
    <path
       style="fill:#a3b891;fill-opacity:1;stroke:none"
       d="m 479.00492,686.87422 c 0.62815,0.0607 1.24513,0.63493 1.89097,-0.11819 -0.0696,-0.19003 -0.006,-0.41975 0.0591,-0.65002 0.49996,0.3483 0.8073,0.0638 1.18185,0 -0.32361,-0.34561 -0.26849,-0.83882 -0.29546,-1.30003 0.69307,0.0548 1.20996,-0.39685 2.18643,0.47274 0.40218,-0.38052 0.0276,-0.90413 -0.29547,-1.41823 0.89627,0.12014 1.01221,-0.43827 2.73304,0.39888 -0.31331,0.0409 -0.69397,0.0258 -0.90117,0.15511 1.22319,1.20354 1.98096,2.59672 2.866,4.02569 0.29053,0.77804 0.40565,1.27542 0.50229,1.74324 -0.42743,0.002 -0.31336,-0.35623 -1.68414,0.51705 l -0.0739,1.12277 c -0.83275,-0.15692 -0.50931,-0.69388 -3.5751,-0.35456 0.42285,0.90755 -1.13184,2.28983 -1.75801,3.44215 -0.69469,-0.44723 -1.25019,-0.96737 -3.23533,-0.73866 l -0.48751,0.44319 c -0.0584,0.33179 0.0719,0.72651 0.11818,1.09322 -1.07464,0.37201 -1.89097,1.26064 -2.83645,1.89096 z"
       id="path5277-9-9-3"
       inkscape:connector-curvature="0"
       sodipodi:nodetypes="cccccccccccccccccccc" />
    <path
       sodipodi:nodetypes="ccccc"
       inkscape:connector-curvature="0"
       id="path3444-8-0-8"
       d="m 473.50541,686.49442 c 0,0 0.32739,-1.03659 1.59796,-0.97538 2.95673,-0.81 4.55035,-0.73279 2.37876,1.26622 l -2.30533,-0.66689 z"
       style="fill:#e7f7da;fill-opacity:1;stroke:none" />
    <path
       sodipodi:nodetypes="cccsscc"
       inkscape:connector-curvature="0"
       id="path3446-7-3-7"
       d="m 467.83021,687.6002 0.9885,-0.1633 0.94968,-0.1271 c 0,0 -1.45876,1.45681 -2.57249,1.64989 -0.86699,0.1503 -2.03307,0.51196 -2.63664,-0.12832 -0.53989,-0.57272 -0.0346,-3.20317 -0.0346,-3.20317 0.64989,2.06231 2.1724,2.35419 3.30554,1.972 z"
       style="fill:#986d50;fill-opacity:1;stroke:none" />
    <path
       sodipodi:nodetypes="ccccccc"
       inkscape:connector-curvature="0"
       id="path3448-0-4-4"
       d="m 467.24548,691.66072 3.07282,2.65917 2.48189,-1.30004 -0.53183,-6.4411 c -0.34524,1.90321 -0.29848,3.49282 -1.35914,5.96836 -1.64178,0.0316 -2.25438,-0.89781 -3.36828,-1.35913 z"
       style="fill:#986d50;fill-opacity:1;stroke:none" />
    <path
       sodipodi:nodetypes="cccssscccsscccssssc"
       inkscape:connector-curvature="0"
       id="path3450-1-4-2"
       d="m 473.86386,689.76976 c -0.8273,-0.53183 -1.14723,-2.19483 -1.14723,-2.19483 0.7989,0.34436 1.96958,1.50314 4.10187,1.02695 1.12819,-0.71034 2.64926,-4.11582 2.30461,-6.33689 -0.18305,-1.17966 -2.26319,-1.64514 -2.18643,-2.83644 0.0394,-0.61158 1.20612,-0.69444 1.30004,-1.30004 0.0828,-0.53379 -0.74496,-1.43912 -0.74496,-1.43912 0.98921,0.54509 2.39057,2.95887 2.32674,4.4724 -0.0794,1.37598 0.0293,1.38165 -0.93176,7.18974 0,0 0.98585,-0.24119 1.21883,0.0931 0.68412,0.98163 -0.0291,2.16168 -1.10781,2.67944 -0.36609,0.17572 -0.99741,0.30028 -0.99741,0.30028 l -1.77278,5.6138 -2.95463,2.77736 c 0,0 -1.40584,-1.80964 -0.88639,-2.54099 0.25094,-0.3533 0.97424,0.28574 1.30004,0 0.56759,-0.4978 -0.0198,-1.55954 0.29546,-2.24552 0.64546,-1.40447 2.51544,-2.02013 3.09493,-3.45308 0.58962,-1.45798 -1.98472,-1.67908 -3.21312,-1.80616 z"
       style="fill:#986d50;fill-opacity:1;stroke:none" />
    <path
       style="fill:#986d50;fill-opacity:1;stroke:none"
       d="m 472.62292,692.57666 3.27965,3.9592 -3.36829,-3.69329 z"
       id="path4278-7-6-53-7"
       inkscape:connector-curvature="0"
       sodipodi:nodetypes="cccc" />
    <path
       sodipodi:nodetypes="ccccc"
       inkscape:connector-curvature="0"
       id="path3454-2-6-7"
       d="m 467.90687,696.73849 c 0.20683,-0.0295 0.94548,-0.53184 0.94548,-0.53184 1.05382,-0.54086 2.10764,-0.38307 3.16146,0.17728 l 0.3841,0.73866 z"
       style="fill:#986d50;fill-opacity:1;stroke:none" />
    <path
       sodipodi:nodetypes="csscsssc"
       inkscape:connector-curvature="0"
       id="path4255-6-6-9"
       d="m 467.32101,679.58236 c 1.28506,0.96567 2.71788,4.53299 4.46981,4.62427 1.32234,0.0689 2.28823,-1.2653 3.46072,-1.30649 0.63427,-0.0223 1.68513,0.63368 1.68513,0.63368 0,0 -1.03116,-0.86035 -1.66102,-0.91642 -1.24486,-0.11083 -2.32463,1.44266 -3.55119,1.20281 -1.46128,-0.28575 -1.91812,-2.0001 -3.02625,-3.15452 -0.42019,-0.43773 -1.3772,-1.08333 -1.3772,-1.08333 z"
       style="fill:#986d50;fill-opacity:1;stroke:none" />
    <path
       sodipodi:nodetypes="cscsc"
       inkscape:connector-curvature="0"
       id="path4257-4-0-3"
       d="m 468.39842,679.12677 c 0,0 2.0071,2.28098 3.38332,2.68875 1.43206,0.42432 4.4676,0.34366 4.4676,0.34366 0,0 -3.11525,0.66145 -4.58215,0.2291 -1.4434,-0.42542 -3.26877,-3.26151 -3.26877,-3.26151 z"
       style="fill:#986d50;fill-opacity:1;stroke:none" />
    <path
       sodipodi:nodetypes="cccccc"
       inkscape:connector-curvature="0"
       id="path3442-4-8-1"
       d="m 469.91191,685.32445 c -0.97911,-0.91152 -1.53165,-1.58254 -3.03472,-2.46284 -1.75465,0.3726 -2.65091,1.46972 -3.80502,2.06752 l 2.49549,-3.24657 2.3926,-1.03641 z"
       style="fill:#e7f7da;fill-opacity:1;stroke:none" />
    <path
       style="fill:#986d50;fill-opacity:1;stroke:none"
       d="m 462.75445,689.76976 2.12734,4.7865 0.7682,4.19558 c -0.8582,-0.92352 -1.39756,-2.37846 -2.0387,-3.66374 z"
       id="path5283-5-5-9"
       inkscape:connector-curvature="0"
       sodipodi:nodetypes="ccccc" />
    <path
       style="fill:#986d50;fill-opacity:1;stroke:none"
       d="m 467.42277,691.48345 -3.27965,3.9592 3.36829,-3.69329 z"
       id="path4278-2-8-8"
       inkscape:connector-curvature="0"
       sodipodi:nodetypes="cccc" />
    <path
       style="fill:#e7f7da;fill-opacity:1;stroke:none"
       d="m 468.74194,699.53129 c -0.44939,0.75746 -1.22538,0.75284 -1.83853,1.12819 -0.11818,1.48351 -1.03989,2.27542 -1.16997,3.50992 0.008,-0.5462 0.59131,-0.80468 1.04462,-1.12819 0.34211,0.56884 0.3252,1.09778 -0.0418,1.58783 0.45657,-0.16968 1.03562,-0.41669 0.82525,0.491 0.16832,1.5818 1.12116,2.04811 1.59827,3.26966 -0.11143,-1.12819 0.1562,-2.06685 -0.33428,-3.38457 0.43895,-0.26905 0.88123,-0.55312 1.21176,-0.33428 -0.15144,-0.42832 -0.16709,-0.94715 -0.62677,-1.16997 0.94419,-0.2628 1.52095,-0.58685 1.79674,-0.96105 -0.0983,-0.56262 -0.53037,-1.02709 -0.20892,-1.71318 -0.78979,-0.37015 -1.74318,-0.47259 -2.25637,-1.29536 z"
       id="path4298-9-93-6"
       inkscape:connector-curvature="0"
       sodipodi:nodetypes="ccccccccccccc" />
    <path
       inkscape:connector-curvature="0"
       id="path3452-8-9-5"
       d="m 461.85792,696.32188 c 0.88639,-0.11819 5.37743,-3.36829 5.37743,-3.36829 0,0 2.54098,1.6546 2.95463,1.6546 0.41365,0 2.83645,-1.00458 2.83645,-1.00458 0,0 7.15021,5.77674 7.03202,5.54037 l -8.09569,-3.82668 z"
       style="fill:#e7f7da;fill-opacity:1;stroke:none"
       sodipodi:nodetypes="ccscccc" />
    <path
       style="fill:#5f3211;fill-opacity:1;stroke:none"
       d="m 468.71502,687.30998 c 1.64489,-1.06749 3.73872,0.0259 5.46038,1.35258 -0.002,-0.28532 0.7127,-1.82419 1.04463,-2.10951 -1.91722,0.45136 -4.37764,-1.16678 -6.29486,-2.1387 z"
       id="path4312-4-0-0"
       inkscape:connector-curvature="0"
       sodipodi:nodetypes="ccccc" />
    <path
       transform="matrix(1.4821183,0,0,1.5387662,-343.756,-378.50476)"
       d="m 553.73225,693.2218 c 0,0.5077 -0.41157,0.91927 -0.91926,0.91927 -0.5077,0 -0.91927,-0.41157 -0.91927,-0.91927 0,-0.50769 0.41157,-0.91926 0.91927,-0.91926 0.50769,0 0.91926,0.41157 0.91926,0.91926 z"
       sodipodi:ry="0.91926569"
       sodipodi:rx="0.91926569"
       sodipodi:cy="693.2218"
       sodipodi:cx="552.81299"
       id="path3440-1-2-2"
       style="color:#000000;fill:url(#linearGradient3445);fill-opacity:1;fill-rule:nonzero;stroke:#5f3211;stroke-width:0.35956058;stroke-miterlimit:4;stroke-opacity:1;stroke-dasharray:none;marker:none;visibility:visible;display:inline;overflow:visible;enable-background:accumulate"
       sodipodi:type="arc" />
    <path
       transform="translate(-76.800479,-5.2648854)"
       d="m 545.79315,690.88184 c 0,1.22308 -0.99151,2.21459 -2.2146,2.21459 -1.22308,0 -2.21459,-0.99151 -2.21459,-2.21459 0,-1.22309 0.99151,-2.2146 2.21459,-2.2146 1.22309,0 2.2146,0.99151 2.2146,2.2146 z"
       sodipodi:ry="2.2145946"
       sodipodi:rx="2.2145946"
       sodipodi:cy="690.88184"
       sodipodi:cx="543.57855"
       id="path3438-6-2-8"
       style="color:#000000;fill:url(#linearGradient3447);fill-opacity:1;fill-rule:nonzero;stroke:#5f3211;stroke-width:1.10000002;stroke-miterlimit:4;stroke-opacity:1;stroke-dasharray:none;marker:none;visibility:visible;display:inline;overflow:visible;enable-background:accumulate"
       sodipodi:type="arc" />
    <path
       sodipodi:type="arc"
       style="color:#000000;fill:none;stroke:url(#linearGradient3449);stroke-width:0.14300001;stroke-miterlimit:4;stroke-opacity:1;stroke-dasharray:none;marker:none;visibility:visible;display:inline;overflow:visible;enable-background:accumulate"
       id="path5225-58-08-6"
       sodipodi:cx="466.92786"
       sodipodi:cy="686.2168"
       sodipodi:rx="2.2972262"
       sodipodi:ry="2.2972262"
       d="m 469.22508,686.2168 c 0,1.26872 -1.0285,2.29722 -2.29722,2.29722 -1.26873,0 -2.29723,-1.0285 -2.29723,-2.29722 0,-1.26873 1.0285,-2.29723 2.29723,-2.29723 1.26872,0 2.29722,1.0285 2.29722,2.29723 z"
       transform="translate(-0.14773159,-0.65001902)" />
    <path
       sodipodi:type="arc"
       style="color:#000000;fill:none;stroke:url(#linearGradient3451);stroke-width:0.14300001;stroke-miterlimit:4;stroke-opacity:1;stroke-dasharray:none;marker:none;visibility:visible;display:inline;overflow:visible;enable-background:accumulate"
       id="path5225-5-9-1-0"
       sodipodi:cx="466.92786"
       sodipodi:cy="686.2168"
       sodipodi:rx="2.2972262"
       sodipodi:ry="2.2972262"
       d="m 469.22508,686.2168 c 0,1.26872 -1.0285,2.29722 -2.29722,2.29722 -1.26873,0 -2.29723,-1.0285 -2.29723,-2.29722 0,-1.26873 1.0285,-2.29723 2.29723,-2.29723 1.26872,0 2.29722,1.0285 2.29722,2.29723 z"
       transform="matrix(0.62943356,0,0,0.62943356,181.64055,256.26853)" />
    <path
       style="fill:#462914;fill-opacity:1;stroke:none"
       d="m 469.32693,686.88094 c 0.0932,-0.59168 0.38553,-0.89877 0.12536,-1.99523 1.40312,0.76455 3.36393,1.50214 4.87837,2.09969 -1.53223,-0.10604 -3.76904,-1.01502 -5.00373,-0.10446 z"
       id="path5261-0-9-2"
       inkscape:connector-curvature="0"
       sodipodi:nodetypes="cccc" />
    <path
       style="fill:#462914;fill-opacity:1;stroke:none"
       d="m 473.92295,688.32937 c -0.0412,-0.34593 0.0179,-0.65337 0.12558,-0.90116 -0.18332,0.27148 -0.86046,0.10401 -1.36652,0.0886 0.46134,0.20637 0.89566,0.54814 1.24094,0.81254 z"
       id="path5263-3-0-4"
       inkscape:connector-curvature="0"
       sodipodi:nodetypes="cccc" />
    <path
       style="fill:#a3b891;fill-opacity:1;stroke:none"
       d="m 457.58539,677.37489 c 2.734,0.7216 4.26232,1.63029 5.39025,2.60111 l -4.56499,-1.19086 c -0.93305,-0.65513 -0.72146,-0.98834 -0.82526,-1.41025 z"
       id="path5265-8-5-8"
       inkscape:connector-curvature="0"
       sodipodi:nodetypes="cccc" />
    <path
       style="fill:#a3b891;fill-opacity:1;stroke:none"
       d="m 451.80343,680.02824 c 2.26966,0.95139 5.03176,1.58621 8.08013,2.037 0,0 -6.1737,-0.10446 -6.43486,-0.20892 -0.67771,-0.4517 -1.40465,-1.04205 -1.64527,-1.82808 z"
       id="path5271-5-8-6"
       inkscape:connector-curvature="0"
       sodipodi:nodetypes="cccc" />
    <path
       style="fill:#a3b891;fill-opacity:1;stroke:none"
       d="m 469.15009,708.43927 c -0.20735,-1.07569 -0.24625,-2.19504 -0.95135,-3.14168 -0.19944,-0.36933 -0.0418,-1.25354 -0.0418,-1.25354 0.0486,0.23785 0.0706,0.48707 0.25071,0.66856 -0.0236,-0.47164 0.0304,-0.65214 0.0836,-0.8357 -0.0631,0.0379 0.23516,0.35362 0.64522,0.37054 -0.54661,-1.73584 -0.23637,-2.30461 -0.23637,-2.30461 0.20309,0.31777 0.43117,0.60287 0.88639,0.59093 -0.0967,-0.16117 -0.13812,-0.33154 0,-0.53184 0.21197,0.27942 0.3668,0.24462 0.54329,0.32894 -0.0482,-0.81169 -0.58709,-1.26094 -0.88487,-1.91217 0.10749,0.006 0.21229,0.009 0.2234,-0.10091 0.44812,0.16944 0.93317,0.33823 1.38129,0.47274 -0.0149,0.88767 0.0613,1.5128 0.24375,1.83188 -0.60631,0.57003 -1.35472,0.70231 -1.9796,0.93809 0.29262,0.22969 0.5678,0.78044 0.78298,1.18924 -0.29589,-0.2627 -0.74988,-0.0669 -1.24095,0.23637 0.55709,1.53337 0.31117,2.4758 0.29431,3.45316 z"
       id="path5273-5-4-5"
       inkscape:connector-curvature="0"
       sodipodi:nodetypes="cccccccccccccccccc" />
    <path
       style="fill:#a3b891;fill-opacity:1;stroke:none"
       d="m 471.01205,694.98478 c 0.20893,0 2.56049,0.2035 2.56049,0.2035 l 2.85781,2.25377 -4.55455,-2.13103 -6.42476,0.72641 1.76471,-0.89051 z"
       id="path5275-2-0-0"
       inkscape:connector-curvature="0"
       sodipodi:nodetypes="ccccccc" />
    <path
       style="fill:#fcd4bd;fill-opacity:1;stroke:none"
       d="m 478.83297,688.58367 -0.14624,0.79391 c 0,0 0.69422,-0.8038 1.14908,-0.75212 0.2398,0.0272 0.50142,0.52231 0.50142,0.52231 0,0 -0.14867,-0.60766 -0.39696,-0.73124 -0.33418,-0.16633 -1.1073,0.16714 -1.1073,0.16714 z"
       id="path5279-4-0-9"
       inkscape:connector-curvature="0"
       sodipodi:nodetypes="ccscsc" />
    <path
       style="fill:#986d50;fill-opacity:1;stroke:none"
       d="m 462.13994,686.80782 -0.23214,-0.36375 -0.45731,-0.49284 c 0,0 -0.56295,-0.28412 -0.64766,-0.0836 -0.36557,0.86538 0.1469,2.04939 0.14625,2.04745 0,0 0.53454,1.12294 1.02372,1.06552 0.27284,-0.032 0.41785,-0.71035 0.41785,-0.71035 0,0 -0.39303,-0.3342 -0.39695,-0.56409 -0.004,-0.2163 0.35517,-0.5432 0.35517,-0.5432 z"
       id="path5281-2-3-0"
       inkscape:connector-curvature="0"
       sodipodi:nodetypes="cccscscscc" />
    <path
       style="fill:url(#linearGradient3453);fill-opacity:1;stroke:none"
       d="m 465.21113,685.81543 c 0,0 -0.10371,-1.36331 1.10207,-1.68706 1.41634,-0.38029 2.04224,1.10207 1.96911,1.06029 -0.0731,-0.0418 -3.07118,0.62677 -3.07118,0.62677 z"
       id="path5285-4-0-0"
       inkscape:connector-curvature="0"
       sodipodi:nodetypes="cscc" />
    <path
       style="fill:url(#linearGradient3455);fill-opacity:1;stroke:none"
       d="m 474.53708,688.278 c 0,0 -0.0684,-0.89932 0.72699,-1.11288 0.9343,-0.25086 1.34718,0.72699 1.29894,0.69943 -0.0482,-0.0276 -2.02593,0.41345 -2.02593,0.41345 z"
       id="path5285-1-5-2-6"
       inkscape:connector-curvature="0"
       sodipodi:nodetypes="cscc" />
  </g>
</svg>
