<?xml version="1.0" encoding="UTF-8" standalone="no"?>
<svg
   xmlns:dc="http://purl.org/dc/elements/1.1/"
   xmlns:cc="http://creativecommons.org/ns#"
   xmlns:rdf="http://www.w3.org/1999/02/22-rdf-syntax-ns#"
   xmlns:svg="http://www.w3.org/2000/svg"
   xmlns="http://www.w3.org/2000/svg"
   xmlns:sodipodi="http://sodipodi.sourceforge.net/DTD/sodipodi-0.dtd"
   xmlns:inkscape="http://www.inkscape.org/namespaces/inkscape"
   id="svg2"
   viewBox="0 0 767.2716 703.05084"
   version="1.1"
   inkscape:version="0.48.4 r9939"
   width="100%"
   height="100%"
   sodipodi:docname="promo.svg">
  <defs
     id="defs14" />
  <sodipodi:namedview
     pagecolor="#ffffff"
     bordercolor="#666666"
     borderopacity="1"
     objecttolerance="10"
     gridtolerance="10"
     guidetolerance="10"
     inkscape:pageopacity="0"
     inkscape:pageshadow="2"
     inkscape:window-width="1920"
     inkscape:window-height="1018"
     id="namedview12"
     showgrid="false"
     inkscape:zoom="0.64304559"
     inkscape:cx="251.25334"
     inkscape:cy="342.52682"
     inkscape:window-x="-8"
     inkscape:window-y="-8"
     inkscape:window-maximized="1"
     inkscape:current-layer="svg2"
     fit-margin-top="0"
     fit-margin-left="0"
     fit-margin-right="0"
     fit-margin-bottom="0" />
  <rect
     style="fill:#2d2d2d;fill-opacity:1"
     id="rect2991"
     width="767.27161"
     height="703.05084"
     x="0"
     y="-2.7711581e-006"
     ry="1.3452193" />
  <g
     id="layer4"
     transform="translate(80.94536,-362.01655)">
    <path
       id="path6766"
       d="m 297.71,675.36 c -3.335,-0.0267 -6.7209,0.94386 -9.7078,3.0131 l -0.11223,0.0878 c -7.8785,5.5524 -9.9764,16.681 -4.7136,24.939 2.0536,3.2225 4.9216,5.53 8.1366,6.8308 -3.5926,51.212 -14.836,216.04 -11.041,220.56 h 31.424 l -8.9363,-220.15 c 1.5258,-0.49873 3.0202,-1.225 4.419,-2.194 7.9651,-5.518 10.132,-16.722 4.8399,-25.027 -3.3077,-5.1904 -8.7509,-8.0148 -14.309,-8.0594 z"
       inkscape:connector-curvature="0"
       style="fill:#ffffff;fill-opacity:1;stroke:#000000;stroke-width:0.45839px" />
    <path
       id="path6750"
       d="m 494.47975,570.98754 -1.02084,-1.55116 C 420.56247,460.19284 274.3331,430.94708 165.90511,503.92032 138.34482,522.47039 115.86008,545.85338 98.810849,572.2252 l 31.807161,21.1176 c 14.33081,-22.15738 33.21471,-41.78979 56.3428,-57.3652 91.02148,-61.25196 213.79371,-36.69728 274.98508,55.02463 l 0.85967,1.30622 31.67285,-21.33463 z"
       inkscape:connector-curvature="0"
       style="fill:#a1ec1e;fill-opacity:1;fill-rule:evenodd;stroke:#f3f3f3;stroke-width:0.43261206;stroke-linejoin:round"
       sodipodi:nodetypes="cccccccccc" />
    <path
       id="path6752"
       d="m 419.11874,621.61474 -0.63199,-0.96031 c -45.1293,-67.63249 -135.66593,-85.73714 -202.78035,-40.55991 -17.06267,11.48424 -30.98249,25.96044 -41.53787,42.28626 l 19.69244,13.07357 c 8.86133,-13.70566 20.55337,-25.8569 34.87613,-35.4972 56.35085,-37.92855 132.35386,-22.72337 170.23717,34.05739 l 0.53222,0.80868 19.60918,-13.20833 z m -0.55715,165.47108 -19.51785,-13.35159 c -8.74435,13.13143 -20.11283,24.78875 -33.94535,34.09853 -56.66918,38.14133 -133.1369,22.52903 -170.78785,-34.87447 l -19.60918,13.19996 c 44.84994,68.37579 135.92112,86.96842 203.42504,41.53728 16.47573,-11.0889 30.02352,-24.97032 40.44056,-40.61099 z"
       inkscape:connector-curvature="0"
       style="fill:#a1ec1e;fill-opacity:1;fill-rule:evenodd;stroke:#f3f3f3;stroke-width:0.26783243;stroke-linejoin:round" />
    <path
       id="path6754"
       d="m 363.50122,658.97871 -0.345,-0.52419 c -24.63502,-36.91857 -74.05283,-46.80145 -110.69243,-22.14037 -9.31396,6.2689 -16.91225,14.17108 -22.67413,23.08368 l 10.7492,7.13646 c 4.83714,-7.48144 11.21939,-14.11447 19.03835,-19.37706 30.76089,-20.70339 72.24772,-12.40374 92.93003,18.59121 l 0.29052,0.44142 10.70393,-7.21008 z m -0.30415,90.3275 -10.65396,-7.28825 c -4.77322,7.1681 -10.97912,13.53161 -18.52933,18.6139 -30.93413,20.82114 -72.67616,12.29835 -93.22953,-19.03661 l -10.70392,7.2054 c 24.48192,37.32426 74.19654,47.47382 111.04165,22.67372 8.99335,-6.05313 16.38977,-13.63076 22.07509,-22.16873 z"
       inkscape:connector-curvature="0"
       style="fill:#a1ec1e;fill-opacity:1;fill-rule:evenodd;stroke:#f3f3f3;stroke-width:0.14620085;stroke-linejoin:round" />
  </g>
  <metadata
     id="metadata10">
    <rdf:RDF>
      <cc:Work>
        <dc:format>image/svg+xml</dc:format>
        <dc:type
           rdf:resource="http://purl.org/dc/dcmitype/StillImage" />
        <cc:license
           rdf:resource="http://creativecommons.org/licenses/publicdomain/" />
        <dc:publisher>
          <cc:Agent
             rdf:about="http://openclipart.org/">
            <dc:title>Openclipart</dc:title>
          </cc:Agent>
        </dc:publisher>
        <dc:title />
        <dc:date>2012-05-27T16:49:28</dc:date>
        <dc:description>clip art, clipart, ecology, green, icon, pollution, radio, wifi, </dc:description>
        <dc:source>http://openclipart.org/detail/170253/eco-wifi-pollution-by-cybergedeon</dc:source>
        <dc:creator>
          <cc:Agent>
            <dc:title>dominiquechappard</dc:title>
          </cc:Agent>
        </dc:creator>
        <dc:subject>
          <rdf:Bag>
            <rdf:li>clip art</rdf:li>
            <rdf:li>clipart</rdf:li>
            <rdf:li>ecology</rdf:li>
            <rdf:li>green</rdf:li>
            <rdf:li>icon</rdf:li>
            <rdf:li>pollution</rdf:li>
            <rdf:li>radio</rdf:li>
            <rdf:li>wifi</rdf:li>
          </rdf:Bag>
        </dc:subject>
      </cc:Work>
      <cc:License
         rdf:about="http://creativecommons.org/licenses/publicdomain/">
        <cc:permits
           rdf:resource="http://creativecommons.org/ns#Reproduction" />
        <cc:permits
           rdf:resource="http://creativecommons.org/ns#Distribution" />
        <cc:permits
           rdf:resource="http://creativecommons.org/ns#DerivativeWorks" />
      </cc:License>
    </rdf:RDF>
  </metadata>
</svg>
