<?xml version="1.0" encoding="UTF-8" standalone="no"?>
<svg
   xmlns:dc="http://purl.org/dc/elements/1.1/"
   xmlns:cc="http://creativecommons.org/ns#"
   xmlns:rdf="http://www.w3.org/1999/02/22-rdf-syntax-ns#"
   xmlns:svg="http://www.w3.org/2000/svg"
   xmlns="http://www.w3.org/2000/svg"
   xmlns:sodipodi="http://sodipodi.sourceforge.net/DTD/sodipodi-0.dtd"
   xmlns:inkscape="http://www.inkscape.org/namespaces/inkscape"
   id="svg2"
   viewBox="0 0 594.38879 555.67676"
   version="1.1"
   inkscape:version="0.48.4 r9939"
   width="100%"
   height="100%"
   sodipodi:docname="silly.svg">
  <defs
     id="defs32" />
  <sodipodi:namedview
     pagecolor="#ffffff"
     bordercolor="#666666"
     borderopacity="1"
     objecttolerance="10"
     gridtolerance="10"
     guidetolerance="10"
     inkscape:pageopacity="0"
     inkscape:pageshadow="2"
     inkscape:window-width="1920"
     inkscape:window-height="1018"
     id="namedview30"
     showgrid="false"
     inkscape:zoom="0.55868914"
     inkscape:cx="269.74781"
     inkscape:cy="377.57425"
     inkscape:window-x="-8"
     inkscape:window-y="-8"
     inkscape:window-maximized="1"
     inkscape:current-layer="svg2"
     fit-margin-top="0"
     fit-margin-left="0"
     fit-margin-right="0"
     fit-margin-bottom="0" />
  <rect
     style="fill:#2d2d2d;fill-opacity:1;stroke:none"
     id="rect3026"
     width="594.38879"
     height="555.67676"
     x="0"
     y="-6.1035157e-006"
     ry="0" />
  <g
     id="g3018"
     style="fill:#a0ec1e;fill-opacity:1;stroke:none"
     transform="translate(99.306511,92.675027)">
    <g
       id="g3104"
       transform="translate(57.403,0)"
       style="fill:#a0ec1e;fill-opacity:1;stroke:none">
      <g
         id="g3048"
         transform="translate(-288.28091,-99.095521)"
         style="fill:#a0ec1e;fill-opacity:1;stroke:none">
        <g
           id="use3050"
           transform="translate(215.61,104.87)"
           style="fill:#a0ec1e;fill-opacity:1;stroke:none">
          <path
             id="path3083"
             d="m 281.84,16.438 0,84.188 84.188,0 0,-84.188 z"
             style="fill:#4398e2;fill-opacity:1;stroke:none"
             inkscape:connector-curvature="0"
             sodipodi:nodetypes="ccccc" />
          <path
             id="path3085"
             d="m 281.84,104.13 v 20 h 8.5 v -10.219 h 29.344 v 10.219 h 8.5 v -10.219 h 29.312 v 10.219 h 8.5312 v -20 h -84.188 z"
             style="fill:#ffffff;fill-opacity:1;stroke:none"
             inkscape:connector-curvature="0" />
        </g>
        <g
           id="use3052"
           transform="translate(215.61,217.95)"
           style="fill:#a0ec1e;fill-opacity:1;stroke:none">
          <path
             id="path3089"
             d="m 281.84,16.438 0,84.188 84.188,0 0,-84.188 z"
             style="fill:#4398e2;fill-opacity:1;stroke:none"
             inkscape:connector-curvature="0"
             sodipodi:nodetypes="ccccc" />
          <path
             id="path3091"
             d="m 281.84,104.13 v 20 h 8.5 v -10.219 h 29.344 v 10.219 h 8.5 v -10.219 h 29.312 v 10.219 h 8.5312 v -20 h -84.188 z"
             style="fill:#ffffff;fill-opacity:1;stroke:none"
             inkscape:connector-curvature="0" />
        </g>
      </g>
    </g>
    <g
       id="g3114"
       transform="translate(65.569,10.012)"
       style="fill:#a0ec1e;fill-opacity:1;stroke:none">
      <g
         id="g3024"
         transform="matrix(1.6808,0,0,1,-101.59,-1.489)"
         style="fill:#a0ec1e;fill-opacity:1;stroke:none">
        <path
           id="path3026"
           d="m 145.98,257.95 c -11.578,0 -20.969,17.18 -20.969,38.375 0,21.195 9.391,38.375 20.969,38.375 11.578,0 20.969,-17.18 20.969,-38.375 0,-21.195 -9.391,-38.375 -20.969,-38.375 z m 0,20.062 c 5.5309,0 10.031,8.1874 10.031,18.312 0,10.1246 -4.5004,18.344 -10.031,18.344 -5.5309,0 -10,-8.2187 -10,-18.344 0,-10.1253 4.4691,-18.312 10,-18.312 z"
           style="fill:#a0ec1e;fill-opacity:1;stroke:none"
           inkscape:connector-curvature="0" />
        <path
           id="path3028"
           d="m 66.798,268.45 c -10.084,0 -18.281,14.978 -18.281,33.438 0,18.459 8.1977,33.438 18.281,33.438 10.084,0 18.25,-14.978 18.25,-33.438 0,-18.459 -8.1665,-33.438 -18.25,-33.438 z m 0,17.469 c 4.8171,0 8.7188,7.1504 8.7188,15.969 0,8.8183 -3.9017,15.969 -8.7188,15.969 -4.8171,0 -8.75,-7.1504 -8.75,-15.969 0,-8.8183 3.9329,-15.969 8.75,-15.969 z"
           style="fill:#a0ec1e;fill-opacity:1;stroke:none"
           inkscape:connector-curvature="0" />
      </g>
      <g
         id="g3030"
         transform="matrix(1.6808,0,0,1,-101.59,-1.489)"
         style="fill:#a0ec1e;fill-opacity:1;stroke:none">
        <path
           id="path3032"
           d="m 163.59,72.156 0,183.44 10.656,0 0,-3.95603 52.202,-6.25 0,-3.8125 -52.202,0 0,-169.42297 z"
           inkscape:connector-curvature="0"
           sodipodi:nodetypes="ccccccccc"
           style="fill:#a0ec1e;fill-opacity:1;stroke:none" />
        <path
           id="path3035"
           d="m 60.812,98.812 -16.281,117.81 h -11 v 21.219 H 108.5 v -21.219 h -7.625 c 0.0451,-0.22188 0.0937,-0.45044 0.0937,-0.6875 v -16.75 c 0,-1.7064 -1.2332,-3.0938 -2.75,-3.0938 h -16.469 c 0,0 -2.5755,-27.662 -5.75,-32.594 -3.1745,-4.9322 -10.25,-1 -10.25,-1 l 8.375,54.125 h -18.844 l 14.781,-107.09 h 46.031 l 7.375,53.406 c -0.0798,0.051 -0.15032,0.0878 -0.21875,0.15625 l -17.81,17.78 c -0.6636,0.6636 -0.50945,1.8968 0.34375,2.75 l 1.0312,1.0312 c 0.8532,0.8532 2.0864,1.0074 2.75,0.34375 l 7.0312,-7.0625 14.062,37.156 1.4688,10.531 c -6.5132,6.6028 -13.124,13.215 -19.75,19.812 h -75.594 l 3.0938,57.594 h 4.875 c -0.0058,-0.38222 -0.03125,-0.77144 -0.03125,-1.1562 0,-22.294 9.8842,-40.344 22.062,-40.344 12.1778,0 22.062,18.05 22.062,40.344 0,0.38481 -0.02541,0.77403 -0.03125,1.1562 h 32.938 c -0.17942,-2.1904 -0.3125,-4.4056 -0.3125,-6.6875 0,-24.798 10.985,-44.906 24.531,-44.906 5.3123,0 10.234,3.0896 14.25,8.3438 v -160.71 h -10.656 v 123.12 h -7.1562 l -16.562,-119.97 v -3.3438 h -0.46875 v -0.0625 l -0.4375,0.0625 h -63.688 l -0.4375,-0.0625 z m 63.656,71.25 3.0625,22.312 -6.9688,-18.406 3.9062,-3.9062 z"
           style="fill:#a0ec1e;fill-opacity:1;stroke:none"
           inkscape:connector-curvature="0" />
      </g>
    </g>
  </g>
  <metadata
     id="metadata28">
    <rdf:RDF>
      <cc:Work>
        <dc:format>image/svg+xml</dc:format>
        <dc:type
           rdf:resource="http://purl.org/dc/dcmitype/StillImage" />
        <cc:license
           rdf:resource="http://creativecommons.org/licenses/publicdomain/" />
        <dc:publisher>
          <cc:Agent
             rdf:about="http://openclipart.org/">
            <dc:title>Openclipart</dc:title>
          </cc:Agent>
        </dc:publisher>
        <dc:title />
        <dc:date>2012-09-21T16:50:53</dc:date>
        <dc:description>A forklift</dc:description>
        <dc:source>http://openclipart.org/detail/172422/forklift-by-solvera-172422</dc:source>
        <dc:creator>
          <cc:Agent>
            <dc:title>SOlvera</dc:title>
          </cc:Agent>
        </dc:creator>
        <dc:subject>
          <rdf:Bag>
            <rdf:li>Forklift</rdf:li>
            <rdf:li>clip art</rdf:li>
            <rdf:li>clipart</rdf:li>
            <rdf:li>merchandise</rdf:li>
            <rdf:li>storage</rdf:li>
            <rdf:li>vehicles</rdf:li>
            <rdf:li>warehouse</rdf:li>
          </rdf:Bag>
        </dc:subject>
      </cc:Work>
      <cc:License
         rdf:about="http://creativecommons.org/licenses/publicdomain/">
        <cc:permits
           rdf:resource="http://creativecommons.org/ns#Reproduction" />
        <cc:permits
           rdf:resource="http://creativecommons.org/ns#Distribution" />
        <cc:permits
           rdf:resource="http://creativecommons.org/ns#DerivativeWorks" />
      </cc:License>
    </rdf:RDF>
  </metadata>
</svg>
