<?xml version="1.0" encoding="UTF-8" standalone="no"?>
<!-- Generator: Adobe Illustrator 16.0.2, SVG Export Plug-In . SVG Version: 6.00 Build 0)  -->

<svg
   xmlns:dc="http://purl.org/dc/elements/1.1/"
   xmlns:cc="http://creativecommons.org/ns#"
   xmlns:rdf="http://www.w3.org/1999/02/22-rdf-syntax-ns#"
   xmlns:svg="http://www.w3.org/2000/svg"
   xmlns="http://www.w3.org/2000/svg"
   xmlns:sodipodi="http://sodipodi.sourceforge.net/DTD/sodipodi-0.dtd"
   xmlns:inkscape="http://www.inkscape.org/namespaces/inkscape"
   version="1.1"
   id="svg2"
   inkscape:version="0.48.4 r9939"
   sodipodi:docname="quick_bitbucket.svg"
   x="0px"
   y="0px"
   width="1000px"
   height="1000px"
   viewBox="0 0 1000 1000"
   xml:space="preserve"><metadata
   id="metadata9"><rdf:RDF><cc:Work
       rdf:about=""><dc:format>image/svg+xml</dc:format><dc:type
         rdf:resource="http://purl.org/dc/dcmitype/StillImage" /></cc:Work></rdf:RDF></metadata><defs
   id="defs7" />
<sodipodi:namedview
   inkscape:window-height="950"
   inkscape:window-width="1175"
   inkscape:window-x="0"
   inkscape:window-y="0"
   inkscape:window-maximized="0"
   inkscape:pageopacity="0"
   inkscape:pageshadow="2"
   inkscape:current-layer="svg2"
   objecttolerance="10"
   inkscape:cy="334.15276"
   guidetolerance="10"
   gridtolerance="10"
   bordercolor="#666666"
   inkscape:zoom="0.39925591"
   borderopacity="1"
   inkscape:cx="146.70181"
   pagecolor="#ffffff"
   showgrid="false"
   id="namedview6">
	</sodipodi:namedview>
<rect
   x="-9.986022"
   y="1.5279552"
   width="1011.6953"
   height="1012.472"
   id="rect4"
   style="fill:#4398e2" />
<path
   id="path4"
   inkscape:connector-curvature="0"
   fill="#FFFFFF"
   d="M190.186,242.996c0-28.188,29.831-52.146,89.494-71.877  c59.661-19.73,131.537-29.596,215.628-29.596c84.561,0,156.555,9.865,215.981,29.596c59.429,19.73,89.142,43.689,89.142,71.877  c0,5.636-16.911,108.989-50.735,310.056c-4.229,21.609-30.302,42.516-78.218,62.714c-47.917,20.202-106.64,30.302-176.168,30.302  c-69.526,0-128.249-10.099-176.167-30.302c-47.916-20.199-73.755-41.104-77.513-62.714  C207.333,358.56,190.186,255.211,190.186,242.996z M265.585,652.409v-2.817c0-7.986,3.524-11.98,10.57-11.98  c2.819,0,5.638,1.175,8.456,3.525c22.08,17.38,50.737,31.006,85.969,40.869c35.234,9.865,64.83,15.27,88.789,16.209l35.937,2.113  c3.758,0,8.808-0.117,15.15-0.352s18.676-1.409,36.997-3.523c18.319-2.114,35.821-5.05,52.497-8.807  c16.678-3.759,35.115-9.632,55.316-17.618c20.2-7.986,37.349-17.617,51.441-28.89l7.751-3.526c7.515,0,11.272,3.994,11.272,11.979  c0,0.941-0.233,1.88-0.703,2.818c-10.336,56.844-17.383,94.662-21.141,113.452c-5.168,23.02-27.716,42.163-67.648,57.431  c-39.932,15.268-86.91,22.902-140.936,22.902c-54.023,0-101.002-7.635-140.933-22.902c-39.932-15.268-62.247-34.411-66.943-57.431  C278.504,721.232,271.223,683.415,265.585,652.409L265.585,652.409z M300.114,232.426c0,11.275,19.143,21.023,57.431,29.245  c38.287,8.221,84.208,12.332,137.763,12.332c54.024,0,100.183-3.994,138.468-11.979c38.288-7.986,57.431-17.616,57.431-28.893  c0-11.745-19.143-21.727-57.431-29.949c-38.285-8.221-84.443-12.332-138.468-12.332s-100.062,3.994-138.116,11.979  C319.139,210.816,300.114,220.681,300.114,232.426z M398.063,481.175c0,26.777,9.513,49.68,28.54,68.706  c19.025,19.025,41.928,28.538,68.705,28.538c26.777,0,49.679-9.512,68.704-28.538c19.026-19.026,28.541-41.93,28.541-68.706  s-9.514-49.678-28.541-68.706c-19.026-19.027-41.927-28.539-68.704-28.539s-49.68,9.512-68.705,28.539  C407.575,431.496,398.063,454.397,398.063,481.175L398.063,481.175z M446.686,481.175c0,13.154,4.698,24.546,14.093,34.177  c9.396,9.63,20.905,14.446,34.529,14.446c13.623,0,25.133-4.816,34.529-14.446c9.397-9.631,14.094-21.023,14.094-34.177  s-4.697-24.546-14.094-34.176c-9.396-9.631-20.905-14.446-34.529-14.446c-13.625,0-25.133,4.815-34.529,14.446  C451.384,456.629,446.686,468.021,446.686,481.175L446.686,481.175z" />
</svg>