<?xml version="1.0" encoding="utf-8"?>
<!-- Generator: Adobe Illustrator 16.0.2, SVG Export Plug-In . SVG Version: 6.00 Build 0)  -->
<!DOCTYPE svg PUBLIC "-//W3C//DTD SVG 1.1//EN" "http://www.w3.org/Graphics/SVG/1.1/DTD/svg11.dtd">
<svg version="1.1"
	 id="svg4026" xmlns:rdf="http://www.w3.org/1999/02/22-rdf-syntax-ns#" xmlns:cc="http://creativecommons.org/ns#" xmlns:dc="http://purl.org/dc/elements/1.1/" xmlns:svg="http://www.w3.org/2000/svg"
	 xmlns="http://www.w3.org/2000/svg" xmlns:xlink="http://www.w3.org/1999/xlink" x="0px" y="0px" width="612px" height="792px"
	 viewBox="0 0 612 792" enable-background="new 0 0 612 792" xml:space="preserve">
<g id="layer1" transform="translate(61.177 -314.04)">
	<g id="g3993" transform="translate(-680.43 206.26)">
		<path id="path3959" fill="#4398E2" d="M1474.753,501.279c0,199.37-259.895,361-580.5,361c-320.593,0-580.5-161.623-580.5-361
			c0-199.369,259.894-361,580.5-361C1214.846,140.28,1474.753,301.902,1474.753,501.279z"/>
		<path id="path3942" fill="none" stroke="#FFFFFF" stroke-width="20" stroke-linecap="round" stroke-linejoin="round" d="
			M707.679,631.504V382.518l28.401-3.733 M736.08,378.785l188.581-13.788l205.694,14.376 M1130.355,379.373l25.498,3.146v248.986
			l-186.18-24.898c-0.56,13.751-17.281,24.898-37.908,24.898c-20.626,0-37.347-11.146-37.347-24.898
			c-59.667,8.084-125.067,16.7-186.741,24.898"/>
		<g id="g3951" transform="matrix(1.078 0 0 1.078 20.049 -228.22)">
			<g id="g3927" transform="translate(.27517 8.2199)">
				
					<path id="path10068-4-8" fill="#4398E2" stroke="#FFFFFF" stroke-width="20" stroke-linecap="round" stroke-linejoin="round" d="
					M845.95,526.776c0,0-16.548-24.583-38.403-21.055c-21.827,3.523-62.138,16.581-83.69,21.255
					c-22.598,4.904-71.588,6.816-71.588,6.816l2.181,226.93c0,0,49.241-3.173,71.838-8.077
					c21.548-4.674,61.861-19.712,83.688-23.236c21.856-3.528,37.919,21.12,37.919,21.12L845.95,526.776z"/>
				
					<path id="path10068-5-09-2" fill="#4398E2" stroke="#FFFFFF" stroke-width="20" stroke-linecap="round" stroke-linejoin="round" d="
					M845.95,526.776c0,0,16.55-24.583,38.406-21.055c21.826,3.523,62.138,16.581,83.687,21.255
					c22.599,4.904,71.587,6.816,71.587,6.816l-2.18,226.93c0,0-49.241-3.173-71.839-8.077
					c-21.549-4.674-61.859-19.712-83.688-23.236c-21.856-3.528-34.027,21.12-34.027,21.12L845.95,526.776z"/>
			</g>
		</g>
		<path id="path1932-3-4" fill="#FFFFFF" d="M954.337,382.176c-5.799,18.225,6.192,25.205,21.789,30.958
			c6.879,3.151,11.227,8.841,13.891,11.726c5.217,8.669,26.572,45.55,64.545,99.209c2.278,3.226,9.281,11.536,7.904,15.622
			c-5.771,17.134-0.827,23.604,5.872,27.763c0.774,0.488,17.268,11.418,29.434,5.798c2.62-1.211-14.525-12.619-15.835-15.374
			c-3.96-8.328,14.282-20.439,18.563-18.126c4.776,2.578,17.691,14.683,17.8,12.903c0.411-6.548-6.913-29.144-18.928-29.159
			c-16.941-0.021-22.273-8.987-22.787-9.714c-16.696-23.641-51.438-75.86-67.203-99.787c-3.771-5.721-4.233-10.06-5.237-14.821
			c-1.29-6.11,5.933-13.441,3.303-20.134c-4.324-10.996-27.054-14.706-32.42-13.211c-2.778,0.773,16.501,13.528,16.205,16.584
			c-0.534,5.479-12.619,14.124-17.738,14.162c-7.06,0.054-14.161-16.261-19.155-14.405L954.337,382.176z"/>
	</g>
</g>
</svg>
