<?xml version="1.0" encoding="utf-8"?>
<!-- Generator: Adobe Illustrator 16.0.2, SVG Export Plug-In . SVG Version: 6.00 Build 0)  -->
<!DOCTYPE svg PUBLIC "-//W3C//DTD SVG 1.1 Tiny//EN" "http://www.w3.org/Graphics/SVG/1.1/DTD/svg11-tiny.dtd">
<svg version="1.1" baseProfile="tiny" id="Layer_4" xmlns="http://www.w3.org/2000/svg" xmlns:xlink="http://www.w3.org/1999/xlink"
	 x="0px" y="0px" width="45px" height="45px" viewBox="0 0 45 45" xml:space="preserve">
<rect x="-21.375" y="-3.125" fill="#4398E2" width="89.875" height="67.125"/>
<g id="Layer_3">
	<g id="g11493_1_" transform="matrix(5.424 0 0 5.424 509.56 5096.4)">
		<path id="rect11480_2_" fill="#FFFFFF" d="M-88.865-933.878l2.417-1.282l0.242,0.456l-2.418,1.282"/>
		<path id="path11486_1_" fill="#FFFFFF" d="M-89.239-933.39l0.273-0.437l0.242,0.456L-89.239-933.39z"/>
		
			<rect id="rect11488_1_" x="-86.397" y="-935.136" transform="matrix(0.4686 0.8834 -0.8834 0.4686 -871.8066 -420.8018)" fill="#FFFFFF" width="0.516" height="0.204"/>
	</g>
	<line fill="none" stroke="#FFFFFF" x1="15.063" y1="27.5" x2="28.68" y2="27.5"/>
	<line fill="none" stroke="#FFFFFF" x1="15.063" y1="24.5" x2="16.668" y2="24.5"/>
	<line fill="none" stroke="#FFFFFF" x1="15.063" y1="30.5" x2="25.467" y2="30.5"/>
	<line fill="none" stroke="#FFFFFF" x1="15.063" y1="33.5" x2="24.695" y2="33.5"/>
	<line fill="none" stroke="#FFFFFF" x1="15.063" y1="12.5" x2="21.967" y2="12.5"/>
	<g id="g11493_2_" transform="matrix(5.424 0 0 5.424 509.56 5096.4)">
		<path id="rect11480_1_" fill="#FFFFFF" d="M-90.523-935.094l-2.418-1.282l0.242-0.456l2.418,1.282"/>
		<path id="path11486_2_" fill="#FFFFFF" d="M-90.422-935.042l0.242-0.455l0.274,0.437L-90.422-935.042z"/>
		
			<rect id="rect11488_2_" x="-93.193" y="-936.809" transform="matrix(-0.4682 0.8836 -0.8836 -0.4682 -964.1299 -1293.1846)" fill="#FFFFFF" width="0.516" height="0.204"/>
	</g>
</g>
<g id="Layer_2">
	<path id="rect908_1_" fill="none" stroke="#FFFFFF" d="M10.907,7.624V38.58H33.71V15.401l-7.319-7.778L10.907,7.624L10.907,7.624z"
		/>
	<polyline fill="none" stroke="#FFFFFF" points="26.334,7.699 26.303,15.374 33.71,15.394 	"/>
</g>
</svg>
