<?xml version="1.0" encoding="UTF-8" standalone="no"?>
<!-- Generator: Adobe Illustrator 16.0.2, SVG Export Plug-In . SVG Version: 6.00 Build 0)  -->

<svg
   xmlns:dc="http://purl.org/dc/elements/1.1/"
   xmlns:cc="http://creativecommons.org/ns#"
   xmlns:rdf="http://www.w3.org/1999/02/22-rdf-syntax-ns#"
   xmlns:svg="http://www.w3.org/2000/svg"
   xmlns="http://www.w3.org/2000/svg"
   xmlns:sodipodi="http://sodipodi.sourceforge.net/DTD/sodipodi-0.dtd"
   xmlns:inkscape="http://www.inkscape.org/namespaces/inkscape"
   version="1.1"
   id="Layer_4"
   x="0px"
   y="0px"
   width="45px"
   height="45px"
   viewBox="0 0 45 45"
   xml:space="preserve"
   inkscape:version="0.48.4 r9939"
   sodipodi:docname="quick_twitter.png"><metadata
   id="metadata32"><rdf:RDF><cc:Work
       rdf:about=""><dc:format>image/svg+xml</dc:format><dc:type
         rdf:resource="http://purl.org/dc/dcmitype/StillImage" /><dc:title></dc:title></cc:Work></rdf:RDF></metadata><defs
   id="defs30" /><sodipodi:namedview
   pagecolor="#ffffff"
   bordercolor="#666666"
   borderopacity="1"
   objecttolerance="10"
   gridtolerance="10"
   guidetolerance="10"
   inkscape:pageopacity="0"
   inkscape:pageshadow="2"
   inkscape:window-width="1269"
   inkscape:window-height="887"
   id="namedview28"
   showgrid="false"
   inkscape:zoom="5.3452853"
   inkscape:cx="49.838051"
   inkscape:cy="5.1496498"
   inkscape:window-x="0"
   inkscape:window-y="0"
   inkscape:window-maximized="0"
   inkscape:current-layer="Layer_4" />
<rect
   x="-0.42195576"
   y="-0.13170797"
   width="46.387928"
   height="46.171951"
   id="rect3"
   style="fill:#4398e2" />


<path
   style="fill:#ffffff"
   inkscape:connector-curvature="0"
   d="m 18.455065,10.748797 c -0.820233,-0.612193 -1.770349,-1.086201 -2.801633,-1.205655 0.142385,0.609829 0.727574,0.929015 1.237378,1.206471 -0.769767,-0.225094 -1.520412,-0.557371 -2.331446,-0.612277 -0.21685,-0.0073 -0.525621,0.0015 -0.602556,0.250455 -0.115914,0.310278 0.201126,0.550917 0.441964,0.680194 0.885589,0.451822 1.908508,0.518098 2.809081,0.935554 -1.850599,-0.17191 -3.697981,0.537828 -5.101644,1.709116 -1.675207,1.363662 -2.7826081,3.337961 -3.186427,5.437539 -1.4806047,0.39291 -3.0813531,0.108087 -4.4709567,-0.475555 0.6985234,1.56502 2.477972,2.279581 4.1035382,2.418766 -1.3507148,0.504187 -2.8372088,0.590097 -4.2648638,0.440275 1.132126,1.240202 2.8835351,1.72312 4.5296051,1.68539 0.6845501,2.766677 2.3125122,5.248441 4.4246312,7.161285 4.110161,3.680145 9.802777,5.443991 15.303275,5.093714 5.287693,-0.319189 10.491189,-2.896772 13.614741,-7.173652 -0.273102,0.158004 -0.502362,0.375732 -0.763054,0.551008 -2.418408,1.730388 -5.637924,2.280307 -8.51319,1.507658 -1.744701,-0.445188 -3.328723,-1.410384 -4.594225,-2.670856 0.809383,0.05411 1.708207,-0.08844 2.295044,-0.691647 0.365762,-0.344551 0.516422,-0.91174 0.296269,-1.373384 -0.265659,-0.582826 -0.857459,-0.914286 -1.416995,-1.17547 1.834876,0.259457 3.834481,-0.58601 4.680357,-2.264031 -0.619837,-0.731014 -1.610581,-0.965835 -2.531012,-1.037017 1.071,-0.308645 2.170951,-0.686738 2.982908,-1.477477 0.645579,-0.598374 1.065208,-1.428295 1.19105,-2.292671 -0.758181,-0.14 -1.519585,-0.310278 -2.296702,-0.278279 1.761982,-0.90701 3.372662,-2.634038 3.231928,-4.72207 -3.341228,1.205654 -6.628673,2.579949 -9.767849,4.239971 -1.098387,0.596739 -2.011277,1.460295 -2.909277,2.3124 -0.869774,-2.23376 -1.803347,-4.476519 -3.217861,-6.436092 -0.758091,-1.030561 -1.65278,-1.989849 -2.751998,-2.6692197 0.04315,0.3378237 0.218502,0.6325517 0.37992,0.9255567 z"
   id="path10" /></svg>